<svg width="525" height="518" viewBox="0 0 525 518" fill="none" xmlns="http://www.w3.org/2000/svg">
<ellipse cx="89.7344" cy="67.1936" rx="89.7344" ry="67.1936" transform="matrix(1 0 0 -1 90.584 224.254)" fill="#1D293D"/>
<ellipse cx="78.8394" cy="105.558" rx="78.8394" ry="105.558" transform="matrix(-0.998465 0.0553924 0.0553924 0.998465 253.572 224.413)" fill="#1D293D"/>
<ellipse cx="128.5" cy="103" rx="128.5" ry="103" transform="matrix(-1 0 0 1 309.258 311.975)" fill="#1D293D"/>
<ellipse cx="74.3926" cy="71.7237" rx="74.3926" ry="71.7237" transform="matrix(-0.998465 0.0553924 0.0553924 0.998465 215.557 108)" fill="#1D293D"/>
<ellipse cx="74.3926" cy="71.7237" rx="74.3926" ry="71.7237" transform="matrix(-0.998465 0.0553924 0.0553924 0.998465 285.557 110)" fill="#1D293D"/>
<path d="M81.5934 46.8009C81.7187 36.2817 95.1215 31.9228 101.411 40.3559L164.037 124.332C165.48 126.268 166.247 128.625 166.218 131.039L164.97 235.789C164.845 246.308 151.442 250.667 145.153 242.234L82.527 158.258C81.0835 156.322 80.317 153.965 80.3457 151.551L81.5934 46.8009Z" fill="#1D293D"/>
<path d="M280.97 46.4772C280.845 35.9579 267.442 31.599 261.153 40.0322L198.527 124.009C197.083 125.944 196.317 128.301 196.345 130.716L197.593 235.465C197.718 245.985 211.121 250.344 217.41 241.91L280.036 157.934C281.48 155.998 282.247 153.641 282.218 151.227L280.97 46.4772Z" fill="#1D293D"/>
<path d="M3.10384 184.102C0.950854 184.597 -0.393256 186.743 0.101682 188.896C0.596621 191.049 2.74318 192.393 4.89617 191.898L3.10384 184.102ZM90.1038 164.102L3.10384 184.102L4.89617 191.898L91.8962 171.898L90.1038 164.102Z" fill="#1D293D"/>
<path d="M7.11282 213.319C5.05157 214.113 4.02483 216.428 4.81953 218.49C5.61423 220.551 7.92943 221.578 9.99068 220.783L7.11282 213.319ZM90.1128 181.319L7.11282 213.319L9.99068 220.783L92.9907 188.783L90.1128 181.319Z" fill="#1D293D"/>
<path d="M356 184.152C358.153 184.647 359.497 186.794 359.002 188.947C358.507 191.1 356.36 192.444 354.207 191.949L356 184.152ZM269 164.152L356 184.152L354.207 191.949L267.207 171.949L269 164.152Z" fill="#1D293D"/>
<path d="M351.991 213.369C354.052 214.164 355.079 216.479 354.284 218.54C353.489 220.602 351.174 221.628 349.113 220.834L351.991 213.369ZM268.991 181.369L351.991 213.369L349.113 220.834L266.113 188.834L268.991 181.369Z" fill="#1D293D"/>
<path d="M254 467.001C317.178 430.701 343.991 366.488 370.5 330.001C432 226.5 471 245.5 504.5 251.5" stroke="#1D293D" stroke-width="40" stroke-linecap="round"/>
</svg>
